# xmcd
#
# Track frame offsets:
#	150
#	17780
#	31357
#	44342
#	57532
#	68377
#	81357
#	94287
#
# Disc length: 1423 seconds
#
# Revision: 1
# Processed by: cddbd v1.5.2PL0 Copyright (c) Steve Scherf et al.
# Submitted via: audiograbber 1.83.01
#
DISCID=65058d08
DTITLE=саяягс циыяцос [1997] - жтаиме ои апомои йаияои [окулпиоу деспоима]
DYEAR=1997
DGENRE=
TTITLE0=г йоумиа лас - ваяис акениоу
TTITLE1=апамы лоу йяатгсоу
TTITLE2=жтаиме ои апомои йаияои
TTITLE3=авуяамхяыпос е.д.е.
TTITLE4=пяовтес-евтес-сглеяа
TTITLE5=поуки хакассимо
TTITLE6=бяе ваяоука ваяийкайи
TTITLE7=васапийо циа 4 - ваяис акениоу
EXTD=
EXTT0=
EXTT1=
EXTT2=
EXTT3=
EXTT4=
EXTT5=
EXTT6=
EXTT7=
PLAYORDER=
